<?xml version="1.0" standalone="no"?><!DOCTYPE svg PUBLIC "-//W3C//DTD SVG 1.1//EN" "http://www.w3.org/Graphics/SVG/1.1/DTD/svg11.dtd"><svg t="1571388995354" class="icon" viewBox="0 0 1024 1024" version="1.1" xmlns="http://www.w3.org/2000/svg" p-id="3446" xmlns:xlink="http://www.w3.org/1999/xlink" width="200" height="200"><defs><style type="text/css"></style></defs><path d="M621.67 408.025c16.623-74.241 28.228-127.936 34.837-161.196 16.641-83.742-26.57-161.496-112.207-161.496-77.237 0-116.01 38.382-138.886 115.095l-0.582 2.248c-13.725 62.048-34.72 110.155-62.511 144.577-29.397 36.41-73.174 57.97-119.733 58.965l-21.904 0.468c-52.244 1.117-94.017 44.131-94.017 96.81v317.837c0 64.802 52.11 117.334 116.392 117.334h412.522c84.739 0 160.38-53.563 189.123-133.922l85.697-239.587c21.805-60.96-9.54-128.196-70.012-150.177a115.556 115.556 0 0 0-39.48-6.956H621.67z m-77.41-258.692c39.258 0 59.498 36.474 49.884 84.925-7.57 38.148-21.987 104.43-43.217 198.67-4.511 20.026 10.565 39.097 30.907 39.097h218.657c6.11 0 12.172 1.07 17.92 3.162 27.446 9.991 41.673 40.553 31.776 68.262l-85.57 239.587c-19.638 54.982-71.316 91.63-129.21 91.63H223.494c-29.176 0-52.827-23.877-52.827-53.333V503.495c0-17.86 14.142-32.444 31.83-32.823l21.87-0.468c65.088-1.394 126.285-31.576 167.38-82.551 34.347-42.605 59.146-99.315 74.865-169.877 15.487-51.444 32.941-68.443 77.649-68.443z" fill="#000000" p-id="3447"></path></svg>